<svg width="597" height="392" viewBox="0 0 597 392" fill="none" xmlns="http://www.w3.org/2000/svg">
<path d="M8.4604 377.07C4.68281 383.736 9.49836 392 17.1606 392H580.087C587.693 392 592.515 383.845 588.849 377.181L569.699 342.362C566.184 335.971 559.468 332 552.175 332H45.6546C38.4517 332 31.8052 335.873 28.2541 342.14L8.4604 377.07Z" fill="#272A5C"/>
<rect x="34" width="530" height="322" rx="20" fill="url(#paint0_linear_12_5309)"/>
<rect x="52" y="17" width="494" height="288" rx="15" fill="#F5F9FF"/>
<circle cx="299" cy="9" r="4" fill="white"/>
<rect x="7" y="371" width="9" height="11" fill="#272A5C"/>
<rect x="581" y="372" width="9" height="11" fill="#272A5C"/>
<path d="M8.4604 367.07C4.68281 373.736 9.49836 382 17.1606 382H580.087C587.693 382 592.515 373.845 588.849 367.181L569.699 332.362C566.184 325.971 559.468 322 552.175 322H45.6546C38.4517 322 31.8052 325.873 28.2541 332.14L8.4604 367.07Z" fill="url(#paint1_linear_12_5309)"/>
<circle cx="524" cy="38" r="9" fill="#DBEAFF"/>
<circle cx="75" cy="38" r="9" fill="#DBEAFF"/>
<rect opacity="0.8" x="66" y="58" width="72" height="235" rx="15" fill="#DBE9FF"/>
<rect x="153" y="58" width="344" height="30" rx="10" fill="#DBE9FF"/>
<rect x="153" y="263" width="344" height="30" rx="10" fill="#DBE9FF"/>
<rect x="153" y="100" width="344" height="30" rx="10" fill="#DBE9FF"/>
<rect opacity="0.5" x="153" y="142" width="344" height="110" rx="10" fill="#DBE9FF"/>
<circle cx="168.103" cy="73.1034" r="6.10345" fill="url(#paint2_linear_12_5309)"/>
<circle cx="168.103" cy="115.103" r="6.10345" fill="url(#paint3_linear_12_5309)"/>
<circle cx="168.103" cy="157.103" r="6.10345" fill="url(#paint4_linear_12_5309)"/>
<circle cx="168.103" cy="278.103" r="6.10345" fill="url(#paint5_linear_12_5309)"/>
<defs>
<linearGradient id="paint0_linear_12_5309" x1="34" y1="148.5" x2="564" y2="322" gradientUnits="userSpaceOnUse">
<stop stop-color="#3E3D6D"/>
<stop offset="1" stop-color="#40447E"/>
</linearGradient>
<linearGradient id="paint1_linear_12_5309" x1="589" y1="382" x2="35.5" y2="322" gradientUnits="userSpaceOnUse">
<stop stop-color="#3D3C6C"/>
<stop offset="1" stop-color="#40447D"/>
</linearGradient>
<linearGradient id="paint2_linear_12_5309" x1="168.103" y1="67" x2="168.103" y2="79.2069" gradientUnits="userSpaceOnUse">
<stop stop-color="#F366E6"/>
<stop offset="1" stop-color="#DB6FEB"/>
</linearGradient>
<linearGradient id="paint3_linear_12_5309" x1="168.103" y1="109" x2="168.103" y2="121.207" gradientUnits="userSpaceOnUse">
<stop stop-color="#F366E6"/>
<stop offset="1" stop-color="#DB6FEB"/>
</linearGradient>
<linearGradient id="paint4_linear_12_5309" x1="168.103" y1="151" x2="168.103" y2="163.207" gradientUnits="userSpaceOnUse">
<stop stop-color="#F366E6"/>
<stop offset="1" stop-color="#DB6FEB"/>
</linearGradient>
<linearGradient id="paint5_linear_12_5309" x1="168.103" y1="272" x2="168.103" y2="284.207" gradientUnits="userSpaceOnUse">
<stop stop-color="#F366E6"/>
<stop offset="1" stop-color="#DB6FEB"/>
</linearGradient>
</defs>
</svg>
