<svg width="61" height="60" viewBox="0 0 61 60" fill="none" xmlns="http://www.w3.org/2000/svg">
<path d="M1.60472 30.4879L1.60469 29.5394L30.5094 19.1721L59.4142 29.5394V30.3682L29.7096 40.2263L1.60472 30.4879Z" stroke="#48225A" stroke-width="0.745178"/>
<path d="M1.23047 30.6694L30.5078 20.1685L59.7852 30.6694L29.7054 40.6193L1.23047 30.6694Z" fill="#48225A"/>
<path d="M12.3711 34.1182H48.5786V46.4194C46.9008 44.8942 44.8831 43.7915 42.6932 43.2032L40.78 42.6892C39.0991 42.2376 37.3715 41.9833 35.6318 41.9314L30.4748 41.7774L25.8794 41.921C23.9985 41.9798 22.1318 42.2671 20.3204 42.7766L19.4645 43.0173C16.9211 43.7326 14.5211 44.8837 12.3711 46.4194V34.1182Z" fill="#48225A"/>
</svg>
