<svg width="59" height="35" viewBox="0 0 59 35" fill="none" xmlns="http://www.w3.org/2000/svg">
<path d="M57.0396 2.70788C57.4421 1.371 57.0396 0.390625 55.1364 0.390625H48.8315C47.2272 0.390625 46.4941 1.23875 46.0916 2.17025C46.0916 2.17025 42.886 9.98738 38.3435 15.056C36.8772 16.5309 36.2074 16.9966 35.4081 16.9966C35.0085 16.9966 34.4277 16.5309 34.4277 15.194V2.70788C34.4277 1.10363 33.9649 0.390625 32.628 0.390625H22.7207C21.7202 0.390625 21.1165 1.13238 21.1165 1.83963C21.1165 3.35763 23.3877 3.70838 23.6206 7.98638V17.2669C23.6206 19.2995 23.2555 19.6704 22.4505 19.6704C20.3144 19.6704 15.1164 11.8245 12.0315 2.843C11.4306 1.09788 10.824 0.393501 9.214 0.393501H2.912C1.10938 0.393501 0.75 1.24163 0.75 2.17313C0.75 3.84638 2.88612 12.1264 10.7004 23.0773C15.9099 30.5551 23.244 34.6089 29.9255 34.6089C33.9304 34.6089 34.4249 33.709 34.4249 32.1565V26.5043C34.4249 24.7045 34.8072 24.3423 36.0751 24.3423C37.0066 24.3423 38.6109 24.8138 42.3512 28.4161C46.6235 32.6884 47.3307 34.606 49.7314 34.606H56.0334C57.8331 34.606 58.733 33.7061 58.2155 31.9294C57.6491 30.1613 55.6079 27.5881 52.8996 24.5435C51.4276 22.807 49.2282 20.9383 48.5584 20.0039C47.624 18.7993 47.8942 18.2674 48.5584 17.1979C48.5612 17.2008 56.2404 6.385 57.0396 2.70788Z" fill="#48225A"/>
</svg>
