<svg width="745" height="720" viewBox="0 0 745 720" fill="none" xmlns="http://www.w3.org/2000/svg">
<path d="M562.048 469.256C566.915 477.333 575.398 488.301 584.581 501.018L431.156 523.126C448.346 476.437 472.568 427.406 436.49 346.293C419.559 308.227 374.535 241.294 393.112 196.689C414.277 145.871 456.07 167.846 466.704 128.498C483.323 66.9976 535.729 24.2418 591.977 54.846C647.494 85.0516 645.56 195.286 572.308 315.835C529.555 408.267 536.635 427.081 562.048 469.256Z" fill="url(#paint0_linear_12_5226)"/>
<path d="M503.98 503.56C502.886 483.419 502.874 464.368 502.862 444.196L502.857 437.471C503.449 427.758 503.77 418.165 504.082 408.888C504.782 387.938 505.443 368.151 509.005 347.146C509.073 345.92 509.08 344.727 509.087 343.465C509.113 338.959 509.142 334.297 511.76 329.842L511.822 329.658C522.435 218.554 556.152 107.782 612.037 0.415035L611.24 0C555.319 107.438 521.571 218.29 510.935 329.472C508.243 334.111 508.215 339.074 508.189 343.458C508.182 344.708 508.175 345.892 508.111 347.045C504.546 368.059 503.884 387.876 503.183 408.857C502.874 418.129 502.553 427.715 501.959 437.445L501.963 444.199C501.975 464.382 501.987 483.445 503.084 503.612L503.98 503.56Z" fill="#FCFDFE"/>
<path d="M505.076 405.037C506.095 352.492 478.41 290.058 455.006 246.934C429.661 200.233 403.738 165.491 403.478 165.146L402.759 165.684C403.018 166.028 428.908 200.729 454.223 247.373C477.572 290.398 505.194 352.674 504.18 405.018L505.076 405.037Z" fill="#FCFDFE"/>
<path d="M540.525 176.696C544.714 120.999 536.208 61.5756 533.412 42.0501C532.877 38.3148 532.525 35.8481 532.542 35.3671L531.643 35.3364C531.624 35.8717 531.9 37.8219 532.523 42.1774C535.316 61.6794 543.811 121.029 539.631 176.63L540.525 176.696Z" fill="#FCFDFE"/>
<path d="M520.427 265.75C539.261 217.775 637.589 175.288 638.58 174.866L638.226 174.041C637.231 174.465 538.558 217.101 519.589 265.424L520.427 265.75Z" fill="#FCFDFE"/>
<path d="M604.977 296.975C614.311 367.557 576.966 349.239 546.617 360.709C517.981 418.252 521.574 467.295 581.641 501.441L640.534 483.762C662.718 479.508 687.941 468.908 682.175 439.393C675.655 406.011 664.622 385.804 700.203 363.821C735.789 341.839 747.751 309.362 727.438 277.305C706.06 243.572 736.996 189.492 705.78 169.325C651.385 134.184 595.257 223.478 604.977 296.975Z" fill="url(#paint1_linear_12_5226)"/>
<path d="M608.215 425.226C629.382 394.122 646.752 360.443 659.842 325.127C673.043 289.507 681.712 252.691 685.607 215.706C687.841 194.499 688.495 173.125 687.549 152.18L686.631 152.222C687.572 173.12 686.921 194.447 684.692 215.612C680.804 252.519 672.154 289.259 658.979 324.808C645.914 360.056 628.58 393.667 607.455 424.709L608.215 425.226Z" fill="#FCFDFE"/>
<path d="M687.763 456.648L688.061 455.778C676.06 451.696 662.232 449.157 646.962 448.232C639.684 447.791 632.527 447.838 625.686 448.376L625.757 449.293C632.555 448.76 639.672 448.711 646.905 449.152C662.093 450.069 675.841 452.592 687.763 456.648Z" fill="#FCFDFE"/>
<path d="M651.024 346.922C677.771 312.387 744.332 305.6 745 305.539L744.913 304.624C744.238 304.692 677.289 311.507 650.297 346.358L651.024 346.922Z" fill="#FCFDFE"/>
<path d="M678.039 262.956C680.428 213.666 636.487 163.435 636.044 162.935L635.355 163.543C635.796 164.043 679.49 213.999 677.119 262.911L678.039 262.956Z" fill="#FCFDFE"/>
<path d="M71.3599 628.095L718.803 622.407V639.239C718.803 643.807 715.979 647.693 712.155 648.384L529.077 681.528C526.904 681.922 524.701 682.026 522.509 681.839L78.3968 644.05C74.4313 643.713 71.3622 639.817 71.3622 635.122V628.095H71.3599Z" fill="url(#paint2_linear_12_5226)"/>
<path d="M295.462 305.691V587.26C295.462 590.818 296.719 594.132 298.719 596.596C300.67 598.994 303.364 600.586 306.311 600.815L510.99 616.343L604.167 623.288L709.058 631.129C709.065 631.129 709.065 631.129 709.065 631.129L712.11 631.48C712.478 631.504 712.837 631.581 713.196 631.574C713.71 631.567 714.217 631.555 714.705 631.492C716.175 631.289 717.746 630.829 718.994 630.136C722.863 627.973 725.658 623.679 725.658 618.522V307.038C725.658 299.27 719.364 293.297 712.108 293.297H306.318C300.335 293.295 295.462 298.657 295.462 305.691Z" fill="url(#paint3_linear_12_5226)"/>
<path d="M288.929 305.691V587.26C288.929 591.014 290.359 594.44 292.546 596.938C293.827 598.39 295.426 599.305 297.151 600.121H297.16C297.422 600.121 297.681 600.35 297.953 600.423C298.566 600.602 299.203 600.741 299.847 600.791L598.373 623.455L705.637 631.598C706.446 631.655 707.237 631.52 708.013 631.421C708.364 631.381 708.716 631.131 709.058 631.131C709.065 631.131 709.065 631.131 709.065 631.131C709.35 631.131 709.629 631.124 709.907 631.041C713.939 629.874 717.253 626.662 718.444 622.354C718.786 621.13 719.131 619.885 719.131 618.522V307.038C719.131 299.27 712.903 293.297 705.637 293.297H299.847C293.862 293.295 288.929 298.657 288.929 305.691Z" fill="url(#paint4_linear_12_5226)"/>
<path d="M312.486 580.96L690.44 607.706C696.349 608.123 701.152 603.32 701.152 596.971V324.267C701.152 317.921 696.349 312.755 690.44 312.726L312.486 311.047C307.551 311.026 303.56 315.693 303.56 321.475V569.857C303.56 575.64 307.551 580.611 312.486 580.96Z" fill="#D8DEE8"/>
<path d="M488.409 301.485C488.409 304.379 490.497 306.732 493.078 306.742C495.661 306.751 497.756 304.405 497.756 301.504C497.756 298.604 495.661 296.25 493.078 296.248C490.497 296.246 488.409 298.59 488.409 301.485Z" fill="white"/>
<path opacity="0.48" d="M397.614 515.382C428.897 497.309 453.494 520.209 477.233 497.615C491.625 483.917 484.56 473.701 502.267 453.233C521.879 430.559 534.651 438.181 554.363 417.775C579.286 391.975 566.821 371.9 588.29 353.374C614.336 330.901 642.423 351.702 667.216 330.149C677.909 320.853 683.776 307.338 686.84 292.965H711.101C715.351 292.965 718.803 296.665 718.803 301.228V624.107C718.803 628.67 715.351 632.106 711.101 631.783L297.53 600.261C295.501 600.106 293.702 598.835 292.546 596.991C322.821 595.807 341.42 584.91 353.309 573.642C376.567 551.603 372.533 529.87 397.614 515.382Z" fill="white"/>
<path d="M283.671 599.415L718.803 631.826L529.077 666.175C526.904 666.568 524.701 666.672 522.509 666.486L71.3599 628.097L276.747 599.637C279.045 599.316 281.362 599.243 283.671 599.415Z" fill="url(#paint5_linear_12_5226)"/>
<path opacity="0.3" d="M655.311 632.639L293.051 605.256L180.934 620.666L540.073 649.938L655.311 632.639Z" fill="url(#paint6_linear_12_5226)"/>
<path opacity="0.3" d="M289.247 305.56V571.915L295.749 572.307L304.143 572.805L311.816 573.263L351.472 575.633L652.894 593.652C654.841 593.775 656.742 593.685 658.577 593.416C667.639 592.085 675.122 586.285 678.659 578.191C679.189 576.973 679.829 575.701 680.171 574.384C680.75 572.196 681.252 569.882 681.252 567.482V293.151H300.146C294.171 293.151 289.247 298.519 289.247 305.56Z" fill="#C7CCD3"/>
<path d="M176.976 230.684C176.976 218.667 184.765 208.455 195.064 205.88C195.432 205.788 195.84 205.705 196.215 205.634C197.339 205.417 198.509 205.292 199.68 205.264L420.2 199.815L645.613 194.243C646.094 194.231 646.576 194.231 647.052 194.243C653.177 194.401 658.791 196.539 663.268 200.049C663.351 200.112 663.433 200.176 663.514 200.242C664.156 200.757 664.776 201.303 665.369 201.874C665.383 201.889 665.397 201.9 665.411 201.915C665.76 202.255 666.1 202.604 666.433 202.961C670.908 207.788 673.641 214.253 673.641 221.416V241.405V555.099C673.641 557.504 673.331 559.818 672.753 562.01C672.406 563.326 671.963 564.596 671.429 565.815C667.882 573.919 660.389 579.722 651.31 581.051C649.471 581.321 647.567 581.408 645.617 581.29L303.841 560.886L199.623 554.667C187.125 553.921 176.974 542.185 176.974 528.453V248.521V230.684H176.976Z" fill="#D8DEE8"/>
<path d="M192.967 205.423L638.389 194.424C653.805 194.045 666.381 206.184 666.381 221.545V554.59C666.381 569.951 653.807 581.652 638.389 580.732L192.967 554.165C180.483 553.42 170.417 541.71 170.417 528.002V230.799C170.42 217.093 180.483 205.732 192.967 205.423Z" fill="white"/>
<path d="M638.388 571.907C648.855 572.51 657.404 564.528 657.404 554.11V221.714C657.404 211.295 648.853 203.013 638.388 203.252L192.969 213.392C184.476 213.585 177.593 221.334 177.593 230.665V528.385C177.593 537.716 184.476 545.705 192.969 546.196L638.388 571.907Z" fill="url(#paint7_linear_12_5226)"/>
<path d="M192.967 205.423L638.389 194.424C653.805 194.045 666.381 206.184 666.381 221.545V241.495L170.42 248.603V230.799C170.42 217.093 180.483 205.732 192.967 205.423Z" fill="#D8DEE8"/>
<path d="M616.683 219.808C616.683 224.782 620.724 228.743 625.72 228.656C630.726 228.569 634.793 224.451 634.793 219.459C634.793 214.467 630.726 210.505 625.72 210.611C620.726 210.718 616.683 214.835 616.683 219.808Z" fill="white"/>
<path d="M585.226 220.412C585.226 225.35 589.213 229.286 594.138 229.201C599.076 229.116 603.086 225.027 603.086 220.07C603.086 215.111 599.076 211.177 594.138 211.283C589.21 211.387 585.226 215.474 585.226 220.412Z" fill="white"/>
<path d="M554.197 221.011C554.197 225.916 558.13 229.823 562.989 229.741C567.858 229.656 571.814 225.597 571.814 220.673C571.814 215.75 567.858 211.842 562.989 211.946C558.127 212.045 554.197 216.106 554.197 221.011Z" fill="white"/>
<path d="M196.747 529.533L633.764 552.975V291.803L196.747 293.305V529.533Z" fill="white"/>
<path d="M395.249 266.985L633.764 264.756V278.863L395.249 280.358V266.985Z" fill="#D8DEE8"/>
<path d="M220.939 268.614V281.449L196.748 281.603V268.84L220.939 268.614Z" fill="#D8DEE8"/>
<g opacity="0.5">
<path opacity="0.5" d="M362.877 374.01C414.721 299.006 505.341 324.726 563.25 240.802C573.742 225.597 580.871 210.071 585.764 195.724L638.389 194.424C653.805 194.045 666.381 206.184 666.381 221.545V554.59C666.381 569.951 653.807 581.652 638.389 580.732L296.995 560.37C306.966 546.188 316.185 530.249 323.996 512.337C354.033 443.455 331.776 419.003 362.877 374.01Z" fill="white"/>
</g>
<path d="M476.491 505.384C476.491 514.965 484.33 523.107 494.04 523.572C503.794 524.039 511.732 516.585 511.732 506.926C511.732 497.264 503.792 489.119 494.04 488.733C484.33 488.346 476.491 495.802 476.491 505.384Z" fill="white"/>
<path d="M406.473 502.322C406.473 511.745 414.055 519.748 423.448 520.197C432.882 520.647 440.561 513.313 440.561 503.812C440.561 494.311 432.882 486.305 423.448 485.933C414.057 485.56 406.473 492.899 406.473 502.322Z" fill="white"/>
<path d="M338.723 499.36C338.723 508.632 346.061 516.499 355.151 516.933C364.28 517.369 371.711 510.148 371.711 500.803C371.711 491.458 364.28 483.586 355.151 483.225C346.061 482.865 338.723 490.09 338.723 499.36Z" fill="white"/>
<path d="M77.0641 51.3608H195.463C200.19 51.3608 204.021 55.1905 204.021 59.9162V191.704C204.021 196.43 200.19 200.259 195.463 200.259H77.0641C72.3366 200.259 68.5056 196.43 68.5056 191.704V59.9162C68.5056 55.1905 72.3366 51.3608 77.0641 51.3608Z" fill="url(#paint8_linear_12_5226)"/>
<path d="M172.771 126.398C172.771 128.98 172.771 131.236 172.771 133.767C175.628 133.767 178.301 133.746 180.971 133.771C184.611 133.805 187.005 135.913 187.017 139.049C187.029 142.164 184.609 144.315 181.006 144.369C178.551 144.404 176.097 144.409 173.641 144.44C173.495 144.442 173.351 144.551 172.889 144.742C172.889 145.609 172.87 146.609 172.891 147.607C173.007 153.229 173.172 158.85 173.243 164.472C173.29 168.278 171.353 170.62 167.65 170.219C162.847 169.698 159.445 171.384 156.706 175.093C156.055 175.975 155.187 176.706 154.385 177.47C152.269 179.487 149.681 179.76 147.478 178.23C145.444 176.817 144.803 174.32 145.791 171.672C145.897 171.386 146.008 171.101 146.192 170.62C145.671 170.493 145.246 170.368 144.817 170.285C141.856 169.719 139.91 167.366 140.179 164.659C140.457 161.857 142.658 159.898 145.732 159.867C150.724 159.817 155.715 159.85 160.707 159.839C161.245 159.836 161.785 159.775 162.483 159.732C162.483 157.122 162.483 154.615 162.483 152.109C162.483 149.665 162.483 147.225 162.483 144.529C161.32 144.466 160.407 144.374 159.494 144.374C146.501 144.364 133.505 144.36 120.512 144.376C118.063 144.378 115.928 143.805 114.725 141.447C112.772 137.62 115.534 133.786 120.299 133.774C131.788 133.743 143.276 133.764 154.765 133.764C157.124 133.764 159.483 133.764 161.945 133.764C161.945 131.274 161.945 129.015 161.945 126.4C160.903 126.4 159.985 126.4 159.07 126.4C146.083 126.4 133.097 126.416 120.111 126.393C115.773 126.383 113.225 123.209 114.435 119.434C115.154 117.191 116.95 115.949 119.766 115.92C124.52 115.875 129.275 115.842 134.027 115.937C136.117 115.979 137.343 115.814 137.294 113.088C137.247 110.527 136.166 110.317 134.135 110.364C129.542 110.471 124.944 110.407 120.349 110.395C116.45 110.386 114.013 108.325 114.1 105.141C114.187 101.932 116.593 99.9532 120.462 99.9414C125.216 99.9272 129.974 99.8447 134.722 99.9862C136.758 100.048 137.308 99.333 137.216 97.4087C137.077 94.4846 137.155 91.5487 137.195 88.6199C137.237 85.3397 139.426 83.0098 142.38 83.024C145.425 83.0381 147.553 85.2524 147.6 88.5798C147.65 92.2137 147.612 95.85 147.612 99.7881C148.678 99.8447 149.587 99.9343 150.497 99.9343C160.719 99.9438 170.938 99.9178 181.16 99.9461C185.58 99.9579 188.265 103.74 186.512 107.431C185.422 109.723 183.476 110.421 181.049 110.412C170.907 110.372 160.766 110.395 150.625 110.4C147.957 110.4 146.404 112.902 147.796 115.192C148.105 115.701 149.289 115.868 150.073 115.871C160.214 115.916 170.355 115.887 180.497 115.925C181.662 115.93 182.91 116.005 183.976 116.415C186.187 117.267 187.378 119.731 186.949 122.044C186.482 124.546 184.474 126.291 181.723 126.372C178.796 126.464 175.868 126.398 172.771 126.398Z" fill="white"/>
<path d="M99.2031 109.353C97.9127 111.105 96.6458 112.876 95.3295 114.609C93.1946 117.42 90.194 118.061 87.6793 116.286C85.0678 114.441 84.7234 111.312 86.896 108.343C94.9827 97.2882 103.084 86.2474 111.201 75.2159C113.385 72.247 116.445 71.6009 119.016 73.4732C121.503 75.2843 121.779 78.5433 119.658 81.4603C117.238 84.79 114.666 88.0183 112.409 91.4542C111.468 92.8856 110.717 94.7226 110.656 96.4039C110.172 109.537 109.885 122.676 109.524 135.813C109.219 146.894 108.903 157.973 108.578 169.052C108.479 172.457 106.183 174.822 103.161 174.699C100.031 174.57 98.0542 172.306 98.1462 168.755C98.6393 149.76 99.1653 130.765 99.6772 111.772C99.6985 111.022 99.6796 110.272 99.6796 109.52C99.5192 109.466 99.3611 109.409 99.2031 109.353Z" fill="white"/>
<path d="M137.186 157.943C137.141 160.687 136.134 162.336 134.155 163.192C132.223 164.029 130.182 163.958 128.611 162.421C126.464 160.322 124.386 158.129 122.485 155.808C120.767 153.714 121.114 150.724 122.99 148.906C124.832 147.119 127.771 146.748 129.68 148.508C132.112 150.75 134.289 153.283 136.441 155.806C137 156.464 137.056 157.546 137.186 157.943Z" fill="white"/>
<path d="M282.479 213.946L318.855 253.655H268.078L282.479 213.946Z" fill="url(#paint9_linear_12_5226)"/>
<path d="M162.89 104.756H281.289C286.017 104.756 289.848 108.586 289.848 113.312V245.1C289.848 249.825 286.017 253.655 281.289 253.655H162.89C158.163 253.655 154.332 249.825 154.332 245.1V113.312C154.332 108.586 158.165 104.756 162.89 104.756Z" fill="url(#paint10_linear_12_5226)"/>
<path d="M204.404 208.033H239.845L246.583 228.24H268.078L231.558 130.169H212.828L176.105 228.24H197.6L204.404 208.033ZM234.387 191.665H209.86L222.191 154.956L234.387 191.665Z" fill="white"/>
<path d="M253.942 300.412C253.942 300.412 248.102 293.432 237.146 293.101C226.189 292.771 211.259 286.272 204.847 285.702C203.299 285.562 202.533 285.119 202.4 284.555C202.129 283.393 209.249 281.7 215.561 281.49C226.757 281.117 233.287 285.411 234.797 283.204C236.486 280.735 229.258 274 230.581 272.494C231.607 271.324 236.521 275.078 241.779 277.368C245.511 278.993 260.111 296.445 260.111 296.445L253.942 300.412Z" fill="url(#paint11_linear_12_5226)"/>
<path d="M420.883 288.76C421.442 280.832 423.147 256.654 410.39 249.421C397.243 241.969 376.278 256.779 367.743 262.806C331.568 288.361 330.695 319.367 310.733 322.753C301.769 324.274 287.509 320.47 266.049 292.368C262.015 295.049 257.979 297.73 253.945 300.412C254.612 331.921 270.915 360.205 296.747 372.692C340.523 393.851 384.162 356.352 389.402 351.702C392.28 349.15 418.302 325.356 420.883 288.76Z" fill="url(#paint12_linear_12_5226)"/>
<path d="M380.77 290.189C373.792 285.667 380.149 272.508 380.527 244.246C380.987 209.611 371.784 203.157 379.177 189.567C388.215 172.951 410.965 166.075 426.039 165.75C429.363 165.679 430.141 163.863 457.992 171.074C508.168 184.065 520.73 170.141 543.202 184.049C564.912 197.488 555.405 212.208 576.488 227.967C610.66 253.515 646.593 225.894 671.016 247.266C694.115 267.48 694.648 318.98 670.35 347.085C642.807 378.946 593.138 369.372 559.847 363.054C552.843 361.726 517.465 354.298 480.629 327.121C460.252 312.085 446.261 296.028 437.36 284.197C435.27 281.846 432.012 279 427.707 278.543C422.541 277.991 418.391 281.151 416.391 282.535C405.881 289.805 387.625 294.632 380.77 290.189Z" fill="url(#paint13_linear_12_5226)"/>
<path d="M406.12 252.758C406.12 252.758 464.407 235.765 490.077 264.816C494.074 269.339 498.124 275.998 501.228 290.699C512.122 342.276 483.128 360.649 487.086 407.451C487.539 412.811 492.602 464.276 529.987 495.903C547.767 510.943 568.024 517.412 567.526 530.747C567.168 540.347 556.217 549.096 546.076 552.19C526.675 558.109 515.354 541.765 489.768 536.107C463.029 530.195 456.832 543.946 414.69 549.509C400.664 551.36 336.64 559.814 320.842 533.426C314.119 522.197 322.408 515.141 334.248 469.096C335.446 464.438 355.944 383.523 349.74 348.261C349.202 345.205 347.39 332.813 347.926 316.377C348.058 312.309 348.572 307.767 349.74 302.346C349.74 302.346 354.694 279.377 372.566 259.651C375.132 256.824 378.192 253.876 406.12 252.758Z" fill="url(#paint14_linear_12_5226)"/>
<g opacity="0.3">
<g opacity="0.3">
<path opacity="0.3" d="M480.112 285.202C485.986 285.136 490.572 307.809 491.264 311.085C502.157 362.663 473.163 381.035 477.121 427.837C477.574 433.197 482.637 484.662 520.022 516.289C537.802 531.332 558.061 537.798 557.561 551.133C557.203 560.733 546.25 569.482 536.111 572.576C516.71 578.495 512.291 556.791 486.702 551.133C459.963 545.222 446.865 564.332 404.723 569.895C390.697 571.746 326.673 580.2 310.875 553.812C309.242 551.086 308.627 549.895 308.787 548.73C310.551 535.907 369.824 547.57 384.681 524.199C399.194 501.367 361.591 460.387 374.186 448.141C384.023 438.579 409.111 461.483 429.281 450.763C441.932 444.04 444.017 428.677 450.269 395.688C461.25 337.77 471.195 285.301 480.112 285.202Z" fill="url(#paint15_linear_12_5226)"/>
</g>
</g>
<path d="M424.834 214.968C424.043 218.654 420.026 238.436 428.122 243.525C429.877 244.629 433.248 245.261 439.995 246.525C444.411 247.352 448.115 247.859 450.729 248.171C450.351 251.489 449.233 256.886 445.404 261.798C434.668 275.565 413.145 272.005 410.076 271.443C399.248 269.472 388.594 266.128 386.021 264.083C382.102 260.971 379.022 258.636 377.2 256.264C381.39 254.241 389.849 248.902 395.528 247.154C399.769 245.85 403.753 244.919 407.375 244.249C407.969 240.426 408.566 236.606 409.16 232.784C414.386 226.851 419.611 220.91 424.834 214.968Z" fill="url(#paint16_linear_12_5226)"/>
<path d="M425.214 224.827C425.214 224.827 423.752 239.323 409.654 241.879C397.031 244.166 387.529 213.676 393.99 205.79C396.144 203.158 401.464 200.656 406.076 200.788C409.319 200.883 420.274 205.052 421.803 216.01C423.985 213.713 426.703 213.053 428.043 214.015C429.743 215.237 428.833 218.786 428.625 219.587C427.911 222.372 426.092 224.099 425.214 224.827Z" fill="url(#paint17_linear_12_5226)"/>
<path d="M402.767 460.137L363.459 362.832C360.8 356.251 364.301 348.799 371.064 346.639L448.853 321.8C453.354 320.777 457.928 323.197 459.612 327.493L499.807 430.075C501.808 435.183 498.989 440.906 493.719 442.437L414.001 465.558C409.422 466.886 404.576 464.549 402.767 460.137Z" fill="url(#paint18_linear_12_5226)"/>
<path d="M407.766 404.157C407.766 404.157 399.896 398.912 399.896 393.665C399.896 388.419 394.65 380.552 392.026 380.552C389.403 380.552 389.403 383.174 392.026 388.419C394.65 393.663 381.531 391.041 376.285 385.796C371.038 380.552 365.789 380.552 368.415 383.174C372.562 387.32 373.661 391.041 373.661 391.041C373.661 391.041 378.908 412.021 401.866 410.71L407.766 404.157Z" fill="url(#paint19_linear_12_5226)"/>
<path d="M462.861 254.666C479.646 247.181 507.725 278.037 512.71 283.515C539.159 312.577 576.681 378.462 546.816 417.27C521.9 449.647 455.008 456.781 399.895 414.648C402.518 409.403 405.141 404.156 407.764 398.912C413.487 400.987 451.118 414.006 478.601 393.667C484.43 389.352 487.022 381.938 487.968 371.906C489.731 353.215 467.69 348.24 454.987 320.234C443.746 295.443 448.389 261.12 462.861 254.666Z" fill="url(#paint20_linear_12_5226)"/>
<path d="M313 535L594 550V565L313 550V535Z" fill="#F1F4F6"/>
<defs>
<linearGradient id="paint0_linear_12_5226" x1="507.118" y1="233.518" x2="493.305" y2="507.252" gradientUnits="userSpaceOnUse">
<stop stop-color="#FF01E7"/>
<stop offset="0.9964" stop-color="#9A6DEB"/>
</linearGradient>
<linearGradient id="paint1_linear_12_5226" x1="670.96" y1="410.998" x2="517.694" y2="94.1804" gradientUnits="userSpaceOnUse">
<stop offset="0.00359712" stop-color="#E38DDD"/>
<stop offset="1" stop-color="#9571F6"/>
</linearGradient>
<linearGradient id="paint2_linear_12_5226" x1="445.339" y1="653.024" x2="490.82" y2="672.133" gradientUnits="userSpaceOnUse">
<stop stop-color="#40447E"/>
<stop offset="0.9964" stop-color="#3C3B6B"/>
</linearGradient>
<linearGradient id="paint3_linear_12_5226" x1="519.437" y1="451.056" x2="566.62" y2="470.88" gradientUnits="userSpaceOnUse">
<stop stop-color="#40447E"/>
<stop offset="0.9964" stop-color="#3C3B6B"/>
</linearGradient>
<linearGradient id="paint4_linear_12_5226" x1="719.13" y1="462.452" x2="288.931" y2="462.452" gradientUnits="userSpaceOnUse">
<stop stop-color="#40447E"/>
<stop offset="0.9964" stop-color="#3C3B6B"/>
</linearGradient>
<linearGradient id="paint5_linear_12_5226" x1="718.803" y1="632.949" x2="71.3601" y2="632.949" gradientUnits="userSpaceOnUse">
<stop stop-color="#40447E"/>
<stop offset="0.9964" stop-color="#3C3B6B"/>
</linearGradient>
<linearGradient id="paint6_linear_12_5226" x1="655.311" y1="627.597" x2="180.934" y2="627.597" gradientUnits="userSpaceOnUse">
<stop stop-color="#40447E"/>
<stop offset="0.9964" stop-color="#3C3B6B"/>
</linearGradient>
<linearGradient id="paint7_linear_12_5226" x1="349.529" y1="651.298" x2="379.712" y2="536.233" gradientUnits="userSpaceOnUse">
<stop stop-color="white"/>
<stop offset="0.9964" stop-color="#EBEFF2"/>
</linearGradient>
<linearGradient id="paint8_linear_12_5226" x1="107.96" y1="233.629" x2="119.785" y2="188.551" gradientUnits="userSpaceOnUse">
<stop offset="0.00359712" stop-color="#E38DDD"/>
<stop offset="1" stop-color="#9571F6"/>
</linearGradient>
<linearGradient id="paint9_linear_12_5226" x1="291.805" y1="244.39" x2="167.753" y2="392.736" gradientUnits="userSpaceOnUse">
<stop stop-color="#F55CEF"/>
<stop offset="0.9964" stop-color="#FF9DE3"/>
</linearGradient>
<linearGradient id="paint10_linear_12_5226" x1="218.701" y1="183.257" x2="94.6488" y2="331.603" gradientUnits="userSpaceOnUse">
<stop stop-color="#DA44FF"/>
<stop offset="0.9964" stop-color="#FFB3FC"/>
</linearGradient>
<linearGradient id="paint11_linear_12_5226" x1="220.376" y1="279.676" x2="282.823" y2="327.876" gradientUnits="userSpaceOnUse">
<stop stop-color="#FFC444"/>
<stop offset="0.9964" stop-color="#F36F56"/>
</linearGradient>
<linearGradient id="paint12_linear_12_5226" x1="276.281" y1="235.622" x2="370.832" y2="330.873" gradientUnits="userSpaceOnUse">
<stop stop-color="#FF9085"/>
<stop offset="1" stop-color="#FB6FBB"/>
</linearGradient>
<linearGradient id="paint13_linear_12_5226" x1="360.387" y1="156.197" x2="731.295" y2="408.225" gradientUnits="userSpaceOnUse">
<stop stop-color="#311944"/>
<stop offset="1" stop-color="#6B3976"/>
</linearGradient>
<linearGradient id="paint14_linear_12_5226" x1="346.284" y1="338.252" x2="511.413" y2="509.437" gradientUnits="userSpaceOnUse">
<stop stop-color="#FF9085"/>
<stop offset="1" stop-color="#FB6FBB"/>
</linearGradient>
<linearGradient id="paint15_linear_12_5226" x1="488.358" y1="613.316" x2="363.903" y2="286.317" gradientUnits="userSpaceOnUse">
<stop stop-color="#FF9085"/>
<stop offset="1" stop-color="#FB6FBB"/>
</linearGradient>
<linearGradient id="paint16_linear_12_5226" x1="423.428" y1="295.152" x2="401.694" y2="196.476" gradientUnits="userSpaceOnUse">
<stop stop-color="#FFC444"/>
<stop offset="0.9964" stop-color="#F36F56"/>
</linearGradient>
<linearGradient id="paint17_linear_12_5226" x1="408.687" y1="207.236" x2="433.596" y2="335.579" gradientUnits="userSpaceOnUse">
<stop stop-color="#FFC444"/>
<stop offset="0.9964" stop-color="#F36F56"/>
</linearGradient>
<linearGradient id="paint18_linear_12_5226" x1="435.296" y1="381.22" x2="379.824" y2="593.395" gradientUnits="userSpaceOnUse">
<stop stop-color="#444B8C"/>
<stop offset="0.9964" stop-color="#26264F"/>
</linearGradient>
<linearGradient id="paint19_linear_12_5226" x1="387.364" y1="390.861" x2="399.086" y2="461.217" gradientUnits="userSpaceOnUse">
<stop stop-color="#FFC444"/>
<stop offset="0.2327" stop-color="#FCB048"/>
<stop offset="0.9964" stop-color="#F36F56"/>
</linearGradient>
<linearGradient id="paint20_linear_12_5226" x1="397.878" y1="288.482" x2="563.008" y2="459.667" gradientUnits="userSpaceOnUse">
<stop stop-color="#FF9085"/>
<stop offset="1" stop-color="#FB6FBB"/>
</linearGradient>
</defs>
</svg>
