<svg width="37" height="33" viewBox="0 0 37 33" fill="none" xmlns="http://www.w3.org/2000/svg">
<path d="M29.2913 11H26.208V15.125H21.583V17.875H26.208V22H29.2913V17.875H33.9163V15.125H29.2913V11ZM6.16634 11C6.14736 11.7269 6.29389 12.4497 6.59707 13.1246C6.90025 13.7996 7.35379 14.4126 7.93024 14.9268C8.5067 15.4409 9.19409 15.8454 9.95085 16.1158C10.7076 16.3862 11.518 16.5169 12.333 16.5C13.148 16.5169 13.9584 16.3862 14.7152 16.1158C15.4719 15.8454 16.1593 15.4409 16.7358 14.9268C17.3122 14.4126 17.7658 13.7996 18.0689 13.1246C18.3721 12.4497 18.5187 11.7269 18.4997 11C18.5187 10.2731 18.3721 9.55031 18.0689 8.87536C17.7658 8.20042 17.3122 7.58734 16.7358 7.0732C16.1593 6.55907 15.4719 6.15456 14.7152 5.88416C13.9584 5.61375 13.148 5.48306 12.333 5.49999C11.518 5.48306 10.7076 5.61375 9.95085 5.88416C9.19409 6.15456 8.5067 6.55907 7.93024 7.0732C7.35379 7.58734 6.90025 8.20042 6.59707 8.87536C6.29389 9.55031 6.14736 10.2731 6.16634 11ZM15.4163 11C15.4362 11.3658 15.37 11.7313 15.2221 12.0729C15.0741 12.4146 14.8477 12.7249 14.5573 12.9838C14.267 13.2428 13.9191 13.4448 13.536 13.5767C13.1529 13.7087 12.7432 13.7677 12.333 13.75C11.9228 13.7677 11.5131 13.7087 11.13 13.5767C10.7469 13.4448 10.3991 13.2428 10.1087 12.9838C9.81832 12.7249 9.5919 12.4146 9.44396 12.0729C9.29603 11.7313 9.22985 11.3658 9.24967 11C9.22985 10.6342 9.29603 10.2687 9.44396 9.92705C9.5919 9.58539 9.81832 9.27512 10.1087 9.01614C10.3991 8.75717 10.7469 8.55522 11.13 8.42328C11.5131 8.29133 11.9228 8.23231 12.333 8.24999C12.7432 8.23231 13.1529 8.29133 13.536 8.42328C13.9191 8.55522 14.267 8.75717 14.5573 9.01614C14.8477 9.27512 15.0741 9.58539 15.2221 9.92705C15.37 10.2687 15.4362 10.6342 15.4163 11ZM6.16634 24.75C6.16634 23.656 6.65362 22.6068 7.52097 21.8332C8.38833 21.0596 9.56472 20.625 10.7913 20.625H13.8747C15.1013 20.625 16.2777 21.0596 17.145 21.8332C18.0124 22.6068 18.4997 23.656 18.4997 24.75V26.125H21.583V24.75C21.583 23.8472 21.3836 22.9532 20.9962 22.119C20.6089 21.2849 20.0411 20.527 19.3253 19.8886C18.6095 19.2502 17.7597 18.7438 16.8245 18.3983C15.8893 18.0528 14.8869 17.875 13.8747 17.875H10.7913C8.74696 17.875 6.78632 18.5993 5.34073 19.8886C3.89513 21.1779 3.08301 22.9266 3.08301 24.75V26.125H6.16634V24.75Z" fill="#680075"/>
</svg>
