<svg width="37" height="37" viewBox="0 0 37 37" fill="none" xmlns="http://www.w3.org/2000/svg">
<path d="M31.2801 12.7804L24.6663 19.3942L22.6622 17.4054L20.4884 19.5946L24.6509 23.7571L33.4693 14.9696L31.2801 12.7804ZM6.16634 12.3333C6.14736 13.1484 6.29389 13.9587 6.59707 14.7155C6.90025 15.4723 7.35379 16.1597 7.93024 16.7361C8.5067 17.3126 9.19409 17.7661 9.95085 18.0693C10.7076 18.3725 11.518 18.519 12.333 18.5C13.148 18.519 13.9584 18.3725 14.7152 18.0693C15.4719 17.7661 16.1593 17.3126 16.7358 16.7361C17.3122 16.1597 17.7658 15.4723 18.0689 14.7155C18.3721 13.9587 18.5187 13.1484 18.4997 12.3333C18.5187 11.5183 18.3721 10.7079 18.0689 9.95118C17.7658 9.19442 17.3122 8.50703 16.7358 7.93058C16.1593 7.35412 15.4719 6.90058 14.7152 6.5974C13.9584 6.29422 13.148 6.14769 12.333 6.16667C11.518 6.14769 10.7076 6.29422 9.95085 6.5974C9.19409 6.90058 8.5067 7.35412 7.93024 7.93058C7.35379 8.50703 6.90025 9.19442 6.59707 9.95118C6.29389 10.7079 6.14736 11.5183 6.16634 12.3333ZM15.4163 12.3333C15.4362 12.7435 15.37 13.1533 15.2221 13.5363C15.0741 13.9194 14.8477 14.2673 14.5573 14.5577C14.267 14.848 13.9191 15.0745 13.536 15.2224C13.1529 15.3703 12.7432 15.4365 12.333 15.4167C11.9228 15.4365 11.5131 15.3703 11.13 15.2224C10.7469 15.0745 10.3991 14.848 10.1087 14.5577C9.81832 14.2673 9.5919 13.9194 9.44396 13.5363C9.29603 13.1533 9.22985 12.7435 9.24967 12.3333C9.22985 11.9232 9.29603 11.5134 9.44396 11.1303C9.5919 10.7473 9.81832 10.3994 10.1087 10.109C10.3991 9.81866 10.7469 9.59223 11.13 9.4443C11.5131 9.29636 11.9228 9.23018 12.333 9.25001C12.7432 9.23018 13.1529 9.29636 13.536 9.4443C13.9191 9.59223 14.267 9.81866 14.5573 10.109C14.8477 10.3994 15.0741 10.7473 15.2221 11.1303C15.37 11.5134 15.4362 11.9232 15.4163 12.3333ZM6.16634 27.75C6.16634 26.5234 6.65362 25.347 7.52097 24.4796C8.38833 23.6123 9.56471 23.125 10.7913 23.125H13.8747C15.1013 23.125 16.2777 23.6123 17.145 24.4796C18.0124 25.347 18.4997 26.5234 18.4997 27.75V29.2917H21.583V27.75C21.583 26.7377 21.3836 25.7354 20.9962 24.8002C20.6089 23.8649 20.0411 23.0152 19.3253 22.2994C18.6095 21.5836 17.7597 21.0158 16.8245 20.6284C15.8893 20.2411 14.8869 20.0417 13.8747 20.0417H10.7913C8.74696 20.0417 6.78632 20.8538 5.34073 22.2994C3.89513 23.745 3.08301 25.7056 3.08301 27.75V29.2917H6.16634V27.75Z" fill="#680075"/>
</svg>
