<svg width="17" height="20" viewBox="0 0 17 20" fill="none" xmlns="http://www.w3.org/2000/svg">
<path d="M6.95455 18.4615L8.11364 13.0769L6.95455 11.5385L5.40909 10.7692L6.95455 18.4615ZM10.0455 18.4615L11.5909 10.7692L10.0455 11.5385L8.88636 13.0769L10.0455 18.4615ZM11.9773 6.32212C11.9612 6.29006 11.9451 6.26603 11.929 6.25C11.8485 6.1859 11.4621 6.15385 10.7699 6.15385C10.2064 6.15385 9.53433 6.22997 8.75355 6.38221C8.69721 6.39824 8.61269 6.40625 8.5 6.40625C8.38731 6.40625 8.30279 6.39824 8.24645 6.38221C7.46567 6.22997 6.79356 6.15385 6.23011 6.15385C5.53788 6.15385 5.15152 6.1859 5.07102 6.25C5.05492 6.26603 5.03883 6.29006 5.02273 6.32212C5.03883 6.46635 5.05492 6.57452 5.07102 6.64663C5.08712 6.67067 5.11731 6.69671 5.16158 6.72476C5.20585 6.7528 5.23603 6.79487 5.25213 6.85096C5.26823 6.88301 5.29841 6.96514 5.34268 7.09736C5.38696 7.22957 5.41513 7.3117 5.4272 7.34375C5.43928 7.3758 5.46946 7.44391 5.51776 7.54808C5.56605 7.65224 5.60026 7.72035 5.62038 7.7524C5.64051 7.78446 5.67673 7.84055 5.72905 7.92067C5.78137 8.0008 5.82966 8.05489 5.87393 8.08293C5.91821 8.11098 5.97455 8.14904 6.04297 8.19712C6.11139 8.24519 6.18182 8.27724 6.25426 8.29327C6.3267 8.30929 6.40921 8.32532 6.50178 8.34135C6.59434 8.35737 6.69295 8.36539 6.79759 8.36539C7.08736 8.36539 7.32481 8.3153 7.50994 8.21514C7.69508 8.11498 7.82588 7.99479 7.90234 7.85457C7.97881 7.71434 8.03717 7.57612 8.07741 7.4399C8.11766 7.30369 8.16394 7.1855 8.21626 7.08534C8.26858 6.98518 8.33902 6.9351 8.42756 6.9351H8.57244C8.66098 6.9351 8.73142 6.98518 8.78374 7.08534C8.83606 7.1855 8.88234 7.30369 8.92258 7.4399C8.96283 7.57612 9.02119 7.71434 9.09766 7.85457C9.17412 7.99479 9.30492 8.11498 9.49006 8.21514C9.67519 8.3153 9.91264 8.36539 10.2024 8.36539C10.3071 8.36539 10.4057 8.35737 10.4982 8.34135C10.5908 8.32532 10.6733 8.30929 10.7457 8.29327C10.8182 8.27724 10.8886 8.24519 10.957 8.19712C11.0254 8.14904 11.0818 8.11098 11.1261 8.08293C11.1703 8.05489 11.2186 8.0008 11.271 7.92067C11.3233 7.84055 11.3595 7.78446 11.3796 7.7524C11.3997 7.72035 11.4339 7.65224 11.4822 7.54808C11.5305 7.44391 11.5607 7.3758 11.5728 7.34375C11.5849 7.3117 11.613 7.22957 11.6573 7.09736C11.7016 6.96514 11.7318 6.88301 11.7479 6.85096C11.764 6.79487 11.7942 6.7528 11.8384 6.72476C11.8827 6.69671 11.9129 6.67067 11.929 6.64663C11.9451 6.57452 11.9612 6.46635 11.9773 6.32212ZM17 16.887C17 17.8566 16.7062 18.6178 16.1186 19.1707C15.531 19.7236 14.7502 20 13.7763 20H3.22372C2.24976 20 1.46899 19.7236 0.881392 19.1707C0.293797 18.6178 0 17.8566 0 16.887C0 16.3982 0.0181108 15.9255 0.0543324 15.4688C0.090554 15.012 0.167022 14.5092 0.283736 13.9603C0.40045 13.4115 0.551373 12.9167 0.736506 12.476C0.921638 12.0353 1.1772 11.6206 1.5032 11.232C1.82919 10.8433 2.20549 10.5449 2.6321 10.3365L1.54545 7.69231H4.12926C3.95218 7.17949 3.86364 6.66667 3.86364 6.15385C3.86364 6.05769 3.87169 5.92949 3.88778 5.76923C2.32623 5.44872 1.54545 5.0641 1.54545 4.61538C1.54545 4.15865 2.39062 3.76202 4.08097 3.42548C4.2178 2.92869 4.42507 2.39183 4.70277 1.8149C4.98047 1.23798 5.2642 0.78125 5.55398 0.444712C5.81155 0.148237 6.11742 0 6.47159 0C6.71307 0 7.05114 0.124199 7.4858 0.372596C7.92045 0.620994 8.25852 0.745192 8.5 0.745192C8.74148 0.745192 9.07955 0.620994 9.5142 0.372596C9.94886 0.124199 10.2869 0 10.5284 0C10.8826 0 11.1884 0.148237 11.446 0.444712C11.7358 0.78125 12.0195 1.23798 12.2972 1.8149C12.5749 2.39183 12.7822 2.92869 12.919 3.42548C14.6094 3.76202 15.4545 4.15865 15.4545 4.61538C15.4545 5.0641 14.6738 5.44872 13.1122 5.76923C13.1686 6.41827 13.0881 7.0593 12.8707 7.69231H15.4545L14.4645 10.3966C14.9716 10.6611 15.4042 11.0477 15.7624 11.5565C16.1206 12.0653 16.3842 12.6402 16.5533 13.2812C16.7223 13.9223 16.839 14.5292 16.9034 15.1022C16.9678 15.6751 17 16.27 17 16.887Z" fill="#680075"/>
</svg>
